<?xml version="1.0" standalone="no"?><!DOCTYPE svg PUBLIC "-//W3C//DTD SVG 1.1//EN" "http://www.w3.org/Graphics/SVG/1.1/DTD/svg11.dtd"><svg height="1600" node-id="1" sillyvg="true" template-height="1600" template-width="1600" version="1.1" viewBox="0 0 1600 1600" width="1600" xmlns="http://www.w3.org/2000/svg" xmlns:xlink="http://www.w3.org/1999/xlink"><defs node-id="20"></defs><path d="M 0.00 0.00 L 1600.00 0.00 L 1600.00 1600.00 L 0.00 1600.00 Z" fill="#ffffff" fill-rule="nonzero" node-id="22" stroke="none" target-height="1600" target-width="1600" target-x="0" target-y="0"></path><path d="M 1298.00 1076.63 C 1298.00 1126.61 1082.65 1167.13 817.00 1167.13 C 551.35 1167.13 336.00 1126.61 336.00 1076.63 C 336.00 1026.65 551.35 986.13 817.00 986.13 C 1082.65 986.13 1298.00 1026.65 1298.00 1076.63 Z" fill="#d9d9d9" fill-rule="nonzero" node-id="24" stroke="none" target-height="181.00098" target-width="962" target-x="336" target-y="986.129"></path><path d="M 704.75 318.86 L 705.19 318.89 L 706.05 319.00 C 710.52 319.63 717.41 321.65 725.33 324.35 C 733.97 327.29 744.33 331.23 755.20 335.61 C 774.10 343.24 794.68 352.31 810.54 360.10 C 824.79 357.36 839.60 355.90 854.81 355.90 C 870.99 355.90 886.72 357.55 901.80 360.65 C 917.29 353.03 936.99 344.28 955.11 336.90 C 965.88 332.51 976.16 328.58 984.71 325.63 C 993.09 322.75 1000.29 320.64 1004.68 320.18 C 1009.37 319.67 1012.68 322.88 1014.66 325.66 C 1016.78 328.63 1018.59 332.72 1020.19 337.33 C 1023.40 346.63 1026.18 359.45 1028.55 373.47 C 1033.22 401.14 1036.42 434.43 1037.97 457.07 C 1038.96 458.91 1039.91 460.78 1040.82 462.66 C 1076.32 512.77 1103.72 628.69 1124.09 743.81 C 1144.07 856.79 1137.40 971.87 1070.86 1044.73 C 971.93 1153.06 694.37 1133.39 618.46 1028.47 C 562.21 1049.25 444.98 977.18 418.34 923.32 C 364.69 814.84 406.48 697.41 372.14 622.65 C 318.34 505.54 187.48 479.75 245.56 452.37 C 367.71 394.76 462.69 514.66 473.40 576.44 C 494.92 700.50 452.52 757.48 452.52 837.24 C 452.52 929.17 528.26 959.28 588.75 965.65 C 569.38 892.66 602.45 826.74 636.17 765.35 C 684.33 655.75 629.97 609.18 656.95 496.81 C 656.97 496.73 656.99 496.64 657.01 496.56 C 660.50 480.74 666.50 465.68 674.63 451.70 C 676.21 429.42 678.70 398.99 682.42 373.26 C 684.49 359.01 686.97 345.96 689.95 336.48 C 691.44 331.78 693.15 327.61 695.21 324.56 C 697.07 321.82 700.21 318.60 704.75 318.86 Z" fill="#000000" fill-rule="nonzero" node-id="26" stroke="none" target-height="834.4631" target-width="956.5919" target-x="187.478" target-y="318.597"></path><g node-id="62"><path d="M 708.36 350.78 C 723.34 359.61 759.79 382.42 752.56 386.85 C 731.13 399.99 701.04 424.94 696.04 431.23 C 691.05 437.52 699.04 354.75 708.36 350.78 Z M 1002.54 350.78 C 1011.86 354.75 1019.85 437.52 1014.85 431.23 C 1009.86 424.94 979.77 399.99 958.34 386.85 C 951.11 382.42 987.56 359.61 1002.54 350.78 Z" fill="#ffffff" fill-opacity="0.2" fill-rule="nonzero" group-id="1" node-id="30" stroke="none" target-height="86.73999" target-width="328.7981" target-x="691.05194" target-y="350.777"></path></g><path d="M 767.19 572.81 C 776.36 571.94 783.47 571.48 786.91 571.70 C 787.46 571.73 787.88 572.21 787.84 572.76 C 787.80 573.31 787.33 573.73 786.78 573.69 C 783.53 573.49 776.59 573.92 767.38 574.80 C 758.21 575.68 746.87 576.98 734.86 578.46 C 710.84 581.43 684.19 585.13 666.99 587.63 C 666.44 587.71 665.93 587.33 665.85 586.79 C 665.77 586.24 666.15 585.73 666.70 585.65 C 683.92 583.15 710.58 579.45 734.61 576.48 C 746.63 574.99 757.99 573.69 767.19 572.81 Z M 922.71 566.93 C 926.32 566.71 933.77 567.17 943.39 568.04 C 953.05 568.92 964.99 570.22 977.60 571.71 C 1002.84 574.67 1030.83 578.38 1048.91 580.88 C 1049.46 580.96 1049.84 581.46 1049.76 582.01 C 1049.69 582.55 1049.18 582.94 1048.64 582.86 C 1030.57 580.36 1002.59 576.66 977.37 573.69 C 964.76 572.21 952.85 570.91 943.21 570.03 C 933.55 569.15 926.26 568.71 922.84 568.92 C 922.28 568.96 921.81 568.54 921.78 567.99 C 921.74 567.43 922.16 566.96 922.71 566.93 Z M 666.78 548.70 C 670.22 548.48 677.32 548.94 686.49 549.81 C 695.69 550.69 707.05 551.99 719.07 553.48 C 743.11 556.45 769.77 560.15 786.99 562.65 C 787.53 562.73 787.91 563.24 787.83 563.79 C 787.75 564.33 787.25 564.71 786.70 564.63 C 769.49 562.13 742.84 558.43 718.83 555.46 C 706.82 553.98 695.47 552.68 686.30 551.80 C 677.09 550.93 670.16 550.49 666.91 550.69 C 666.36 550.73 665.88 550.31 665.84 549.76 C 665.81 549.21 666.23 548.73 666.78 548.70 Z M 1028.15 543.04 C 1037.78 542.17 1045.23 541.71 1048.84 541.93 C 1049.39 541.96 1049.81 542.43 1049.77 542.99 C 1049.74 543.54 1049.26 543.96 1048.71 543.92 C 1045.29 543.71 1038.00 544.15 1028.34 545.03 C 1018.70 545.91 1006.79 547.21 994.18 548.69 C 968.96 551.66 940.98 555.36 922.91 557.86 C 922.36 557.94 921.86 557.55 921.78 557.01 C 921.71 556.46 922.09 555.96 922.64 555.88 C 940.72 553.38 968.71 549.67 993.95 546.71 C 1006.56 545.22 1018.49 543.92 1028.15 543.04 Z" fill="#ffffff" fill-rule="nonzero" node-id="33" stroke="none" target-height="46.005005" target-width="384.06696" target-x="665.773" target-y="541.706"></path><path d="M 900.25 498.78 C 904.25 480.07 924.75 468.60 939.37 471.72 C 959.96 476.12 966.30 501.67 962.31 520.38 C 958.31 539.08 938.84 542.45 924.89 539.47 C 902.31 534.64 896.25 517.49 900.25 498.78 Z M 744.83 499.84 C 747.83 480.59 768.04 467.75 783.07 470.10 C 804.26 473.40 812.16 499.02 809.16 518.27 C 806.16 537.52 786.55 542.05 772.20 539.81 C 748.96 536.18 741.83 519.09 744.83 499.84 Z" fill="#ffffff" fill-rule="nonzero" node-id="35" stroke="none" target-height="74.69501" target-width="224.47797" target-x="741.825" target-y="467.752"></path><path d="M 911.73 497.07 C 914.94 482.03 929.13 470.93 943.07 473.90 C 959.37 477.39 965.71 501.21 962.49 516.25 C 959.28 531.29 945.09 532.67 931.15 529.69 C 917.21 526.72 908.51 512.11 911.73 497.07 Z M 756.41 497.44 C 758.82 481.96 772.62 469.86 786.96 472.10 C 803.74 474.72 811.53 498.58 809.12 514.06 C 806.71 529.54 792.35 531.75 778.01 529.51 C 763.66 527.27 753.99 512.91 756.41 497.44 Z" fill="#fed43e" fill-rule="nonzero" node-id="37" stroke="none" target-height="62.810974" target-width="211.71399" target-x="753.993" target-y="469.862"></path><path d="M 951.71 488.31 C 954.27 487.73 957.40 491.90 958.71 497.63 C 960.01 503.36 959.00 508.48 956.43 509.06 C 953.88 509.64 950.74 505.47 949.43 499.74 C 948.13 494.01 949.15 488.89 951.71 488.31 Z M 797.39 486.46 C 800.00 485.87 803.17 490.03 804.47 495.75 C 805.77 501.47 804.72 506.59 802.11 507.18 C 799.50 507.78 796.33 503.62 795.03 497.90 C 793.72 492.18 794.78 487.06 797.39 486.46 Z" fill="#000000" fill-rule="nonzero" node-id="39" stroke="none" target-height="23.772003" target-width="166.289" target-x="793.724" target-y="485.871"></path><path d="M 876.61 532.01 C 876.61 536.62 868.28 536.72 858.01 536.72 C 847.75 536.72 839.42 536.62 839.42 532.01 C 839.42 527.41 847.75 520.05 858.01 520.05 C 868.28 520.05 876.61 527.41 876.61 532.01 Z" fill="#ffcfc2" fill-rule="nonzero" node-id="41" stroke="none" target-height="16.67102" target-width="37.189087" target-x="839.42" target-y="520.053"></path><path d="M 741.26 974.04 C 757.03 961.37 756.89 978.99 765.83 986.90 C 777.67 997.36 787.61 996.84 791.74 1025.33 C 795.88 1053.82 788.63 1107.56 747.30 1124.88 C 705.97 1142.20 681.17 1079.63 679.26 1060.07 C 677.35 1040.52 681.19 1021.03 693.88 1012.03 C 706.28 1003.24 703.19 986.31 712.01 977.95 C 721.82 968.65 730.13 982.98 741.26 974.04 Z M 1060.28 974.24 C 1069.22 966.33 1069.08 948.71 1084.85 961.38 C 1095.98 970.31 1104.30 955.99 1114.10 965.29 C 1122.92 973.65 1119.83 990.57 1132.23 999.37 C 1144.92 1008.37 1148.76 1027.86 1146.85 1047.41 C 1144.95 1066.96 1120.15 1129.54 1078.81 1112.22 C 1037.48 1094.90 1030.24 1041.16 1034.37 1012.67 C 1038.50 984.18 1048.44 984.70 1060.28 974.24 Z" fill="#000000" fill-rule="nonzero" node-id="43" stroke="none" target-height="193.49097" target-width="471.40802" target-x="677.352" target-y="948.709"></path><path d="M 750.48 961.59 C 756.27 961.58 760.07 964.91 762.35 967.75 C 764.37 970.28 766.19 973.76 767.36 975.76 C 768.79 978.22 769.92 979.84 771.13 980.91 C 773.68 983.16 776.11 984.82 778.89 986.76 C 781.56 988.64 784.64 990.85 787.49 993.86 C 793.52 1000.24 797.46 1009.03 799.66 1024.18 C 801.89 1039.55 801.05 1061.39 794.15 1081.85 C 787.23 1102.38 773.85 1122.43 750.39 1132.26 C 737.96 1137.47 726.33 1136.73 716.17 1132.08 C 706.31 1127.57 698.29 1119.60 692.03 1111.01 C 679.63 1094.00 672.40 1072.12 671.30 1060.85 C 670.27 1050.37 670.75 1039.59 673.38 1029.98 C 676.00 1020.39 680.94 1011.40 689.26 1005.50 C 693.04 1002.82 694.77 998.83 696.62 992.56 C 697.45 989.73 698.44 985.97 699.76 982.63 C 701.13 979.14 703.13 975.34 706.50 972.14 C 710.29 968.56 714.45 966.87 718.79 966.68 C 722.62 966.51 726.17 967.57 728.28 968.15 C 730.81 968.85 732.07 969.14 733.18 969.11 C 733.90 969.10 734.82 968.95 736.25 967.80 C 740.61 964.30 745.35 961.60 750.48 961.59 Z M 765.83 986.90 C 756.89 978.99 757.03 961.37 741.26 974.04 L 740.74 974.44 C 729.87 982.53 721.66 968.79 712.01 977.95 L 711.60 978.35 C 703.28 986.84 706.09 1003.37 693.88 1012.03 C 681.19 1021.03 677.35 1040.52 679.26 1060.07 L 679.37 1061.02 C 681.95 1081.56 706.61 1141.93 747.30 1124.88 C 788.63 1107.56 795.88 1053.82 791.74 1025.33 C 787.67 997.28 777.98 997.35 766.39 987.38 L 765.83 986.90 Z M 1075.64 948.93 C 1080.76 948.94 1085.50 951.64 1089.86 955.14 C 1091.29 956.29 1092.21 956.43 1092.93 956.45 C 1094.05 956.48 1095.30 956.19 1097.84 955.49 C 1099.94 954.90 1103.49 953.85 1107.32 954.02 C 1111.66 954.21 1115.83 955.89 1119.61 959.48 C 1122.98 962.68 1124.98 966.48 1126.35 969.97 C 1127.67 973.31 1128.66 977.06 1129.50 979.90 C 1131.34 986.16 1133.07 990.15 1136.86 992.84 C 1145.17 998.74 1150.11 1007.73 1152.73 1017.32 C 1155.36 1026.93 1155.84 1037.71 1154.81 1048.19 C 1153.72 1059.46 1146.48 1081.34 1134.08 1098.35 C 1127.82 1106.94 1119.80 1114.91 1109.94 1119.42 C 1099.78 1124.07 1088.15 1124.80 1075.72 1119.59 C 1052.26 1109.76 1038.88 1089.72 1031.96 1069.19 C 1025.06 1048.73 1024.22 1026.89 1026.45 1011.52 C 1028.65 996.37 1032.59 987.57 1038.62 981.20 C 1041.47 978.18 1044.55 975.98 1047.22 974.10 C 1050.00 972.15 1052.43 970.50 1054.98 968.25 C 1056.19 967.18 1057.33 965.55 1058.76 963.09 C 1059.92 961.10 1061.74 957.61 1063.76 955.09 C 1066.04 952.25 1069.84 948.92 1075.64 948.93 Z M 1084.85 961.38 C 1069.08 948.71 1069.22 966.33 1060.28 974.24 L 1059.73 974.72 C 1048.13 984.69 1038.44 984.62 1034.37 1012.67 C 1030.24 1041.16 1037.48 1094.90 1078.81 1112.22 C 1119.50 1129.26 1144.17 1068.90 1146.75 1048.36 L 1146.85 1047.41 C 1148.76 1027.86 1144.92 1008.37 1132.23 999.36 C 1120.03 990.71 1122.83 974.18 1114.51 965.68 L 1114.10 965.29 C 1104.45 956.13 1096.24 969.87 1085.37 961.78 L 1084.85 961.38 Z" fill="#ffffff" fill-rule="nonzero" node-id="45" stroke="none" target-height="193.22107" target-width="485.56494" target-x="670.275" target-y="948.709"></path><g node-id="63"><path d="M 735.74 1046.77 C 749.94 1040.70 763.19 1048.27 765.33 1063.68 C 767.47 1079.09 757.69 1096.51 743.48 1102.58 C 729.27 1108.65 716.02 1101.07 713.88 1085.66 C 711.75 1070.25 721.53 1052.84 735.74 1046.77 Z M 1060.78 1051.02 C 1062.92 1035.61 1076.17 1028.04 1090.38 1034.11 C 1104.58 1040.18 1114.37 1057.59 1112.23 1073.00 C 1110.09 1088.41 1096.84 1095.98 1082.63 1089.91 C 1068.43 1083.84 1058.64 1066.43 1060.78 1051.02 Z M 702.22 1036.70 C 706.07 1036.70 709.19 1042.09 709.19 1048.73 C 709.19 1055.38 706.07 1060.76 702.22 1060.76 C 698.38 1060.76 695.26 1055.38 695.26 1048.73 C 695.26 1042.09 698.38 1036.70 702.22 1036.70 Z M 1123.89 1024.04 C 1127.74 1024.04 1130.85 1029.43 1130.85 1036.07 C 1130.85 1042.71 1127.74 1048.10 1123.89 1048.10 C 1120.04 1048.10 1116.92 1042.71 1116.92 1036.07 C 1116.92 1029.43 1120.04 1024.04 1123.89 1024.04 Z M 730.08 1011.38 C 733.93 1011.38 737.05 1017.05 737.05 1024.04 C 737.05 1031.04 733.93 1036.70 730.08 1036.70 C 726.24 1036.70 723.12 1031.03 723.12 1024.04 C 723.12 1017.05 726.24 1011.38 730.08 1011.38 Z M 756.67 1006.31 C 760.52 1006.31 763.64 1011.70 763.64 1018.34 C 763.64 1024.99 760.52 1030.37 756.67 1030.37 C 752.83 1030.37 749.71 1024.99 749.71 1018.34 C 749.71 1011.70 752.83 1006.31 756.67 1006.31 Z M 1096.03 998.72 C 1099.88 998.72 1103.00 1004.39 1103.00 1011.38 C 1103.00 1018.37 1099.88 1024.04 1096.03 1024.04 C 1092.19 1024.04 1089.07 1018.37 1089.07 1011.38 C 1089.07 1004.39 1092.18 998.72 1096.03 998.72 Z M 1069.44 993.65 C 1073.29 993.65 1076.40 999.04 1076.40 1005.68 C 1076.40 1012.32 1073.29 1017.71 1069.44 1017.71 C 1065.59 1017.71 1062.48 1012.32 1062.48 1005.68 C 1062.48 999.04 1065.59 993.65 1069.44 993.65 Z" fill="#ff8f8e" fill-opacity="0.4" fill-rule="nonzero" group-id="2" node-id="49" stroke="none" target-height="115" target-width="435.591" target-x="695.259" target-y="993.65"></path></g><path d="M 883.97 674.00 C 785.12 674.00 705.00 747.82 705.00 838.80 C 705.00 961.04 814.92 1075.05 862.49 1118.65 C 874.47 1129.67 893.81 1129.78 906.01 1118.98 C 953.86 1076.64 1063.00 966.14 1063.00 838.80 C 1062.94 747.82 982.82 674.00 883.97 674.00 Z M 883.97 893.97 C 851.98 893.97 826.00 868.63 826.00 837.43 C 826.00 806.22 851.98 780.88 883.97 780.88 C 915.97 780.88 941.94 806.22 941.94 837.43 C 941.94 868.63 915.97 893.97 883.97 893.97 Z" fill="#ffffff" fill-rule="nonzero" node-id="52" stroke="none" target-height="455.78003" target-width="358" target-x="705" target-y="674"></path><path d="M 1063.00 838.80 C 1062.94 747.82 982.82 674.00 883.97 674.00 C 785.12 674.00 705.00 747.82 705.00 838.80 L 705.00 840.23 C 705.86 961.93 815.11 1075.22 862.49 1118.65 C 874.47 1129.67 893.81 1129.78 906.01 1118.98 C 953.67 1076.81 1062.15 967.00 1063.00 840.29 L 1063.00 838.80 Z M 931.94 837.43 C 931.94 811.98 910.68 790.88 883.97 790.88 C 857.26 790.88 836.00 811.98 836.00 837.43 C 836.00 862.87 857.26 883.97 883.97 883.97 L 883.97 893.97 L 883.22 893.96 C 851.82 893.57 826.40 868.78 826.01 838.16 L 826.00 837.43 C 826.00 806.22 851.98 780.88 883.97 780.88 C 915.97 780.88 941.94 806.22 941.94 837.43 L 941.94 838.16 C 941.54 869.02 915.72 893.97 883.97 893.97 L 883.97 883.97 C 910.68 883.97 931.94 862.87 931.94 837.43 Z M 1073.00 838.80 C 1073.00 905.27 1044.56 966.71 1010.71 1016.39 C 976.81 1066.16 936.91 1104.99 912.64 1126.46 C 896.64 1140.64 871.50 1140.54 855.72 1126.01 L 855.72 1126.01 C 831.63 1103.92 791.65 1063.94 757.63 1013.83 C 723.70 963.85 695.00 902.79 695.00 838.80 C 695.00 741.53 780.39 664.00 883.97 664.00 C 987.55 664.00 1072.94 741.53 1073.00 838.79 L 1073.00 838.80 Z" fill="#000000" fill-rule="nonzero" node-id="54" stroke="none" target-height="476.64" target-width="378" target-x="695" target-y="664"></path><path d="M 765.60 666.30 C 800.17 652.33 838.83 667.32 849.25 693.08 C 859.66 718.85 834.82 738.05 800.25 752.02 C 765.67 766.00 734.47 769.45 724.05 743.69 C 713.64 717.92 731.03 680.27 765.60 666.30 Z M 895.10 694.52 C 905.06 668.58 943.46 652.91 978.27 666.28 C 1013.08 679.65 1031.13 716.98 1021.16 742.93 C 1011.20 768.87 979.94 765.96 945.13 752.60 C 910.32 739.23 885.14 720.47 895.10 694.52 Z" fill="#000000" fill-rule="nonzero" node-id="56" stroke="none" target-height="117.12598" target-width="317.49402" target-x="713.636" target-y="652.328"></path><path d="M 763.73 661.66 C 782.19 654.20 801.74 654.47 818.10 660.06 C 834.39 665.62 848.00 676.65 853.88 691.21 C 856.85 698.55 857.38 705.66 855.70 712.41 C 854.03 719.09 850.29 725.08 845.25 730.41 C 835.27 740.97 819.61 749.59 802.12 756.66 C 784.63 763.73 767.38 768.41 752.86 767.75 C 745.54 767.42 738.68 765.72 732.84 762.07 C 726.94 758.38 722.38 752.90 719.41 745.56 C 713.53 731.00 715.65 713.61 723.50 698.29 C 731.39 682.90 745.26 669.13 763.73 661.66 Z M 925.67 660.96 C 941.93 655.09 961.47 654.48 980.06 661.61 C 998.65 668.75 1012.76 682.28 1020.92 697.53 C 1029.03 712.71 1031.46 730.06 1025.83 744.72 C 1023.00 752.11 1018.53 757.67 1012.70 761.46 C 1006.92 765.21 1000.10 767.03 992.78 767.49 C 978.28 768.41 960.95 764.03 943.34 757.26 C 925.72 750.50 909.91 742.16 899.75 731.78 C 894.62 726.53 890.77 720.61 888.99 713.96 C 887.19 707.24 887.60 700.12 890.43 692.73 C 896.06 678.07 909.48 666.81 925.67 660.96 Z M 849.25 693.08 C 838.91 667.52 800.77 652.56 766.41 665.98 L 765.60 666.30 C 731.03 680.27 713.64 717.92 724.05 743.69 C 734.30 769.05 764.70 766.10 798.63 752.67 L 800.25 752.02 C 834.55 738.16 859.27 719.15 849.49 693.69 L 849.25 693.08 Z M 978.27 666.28 C 943.46 652.92 905.06 668.58 895.10 694.52 C 885.29 720.06 909.54 738.64 943.50 751.97 L 945.13 752.60 C 979.67 765.86 1010.71 768.83 1020.93 743.53 L 1021.16 742.93 C 1031.05 717.18 1013.36 680.23 979.08 666.60 L 978.27 666.28 Z" fill="#ffffff" fill-rule="nonzero" node-id="58" stroke="none" target-height="116.48901" target-width="317.92798" target-x="713.532" target-y="652.563"></path><path d="M 982.22 725.94 C 982.41 724.29 983.90 723.11 985.54 723.30 C 987.19 723.49 988.37 724.98 988.18 726.62 C 987.78 730.13 986.54 735.52 984.09 740.58 C 981.66 745.58 977.79 750.73 971.88 752.91 C 970.33 753.48 968.60 752.68 968.03 751.13 C 967.46 749.57 968.26 747.85 969.81 747.28 C 973.61 745.88 976.55 742.35 978.69 737.96 C 980.80 733.61 981.88 728.89 982.22 725.94 Z M 761.70 721.17 C 763.34 720.95 764.85 722.11 765.07 723.75 C 765.46 726.69 766.62 731.39 768.81 735.70 C 771.02 740.06 774.03 743.53 777.85 744.86 C 779.41 745.41 780.24 747.12 779.70 748.68 C 779.15 750.25 777.44 751.07 775.88 750.53 C 769.93 748.46 765.97 743.37 763.46 738.41 C 760.91 733.40 759.58 728.03 759.12 724.53 C 758.90 722.89 760.06 721.38 761.70 721.17 Z M 945.93 706.70 C 946.17 705.06 947.70 703.92 949.34 704.16 C 950.97 704.40 952.11 705.93 951.87 707.57 C 951.23 711.94 949.50 718.59 946.34 724.53 C 943.22 730.37 938.33 736.18 931.09 737.56 C 929.46 737.87 927.89 736.80 927.58 735.17 C 927.27 733.54 928.34 731.97 929.97 731.66 C 934.54 730.80 938.23 726.98 941.05 721.70 C 943.81 716.51 945.37 710.55 945.93 706.70 Z M 797.57 701.40 C 799.20 701.13 800.75 702.24 801.01 703.87 C 801.65 707.71 803.30 713.65 806.16 718.79 C 809.07 724.01 812.83 727.77 817.41 728.56 C 819.04 728.84 820.14 730.39 819.86 732.02 C 819.58 733.65 818.03 734.75 816.39 734.47 C 809.13 733.22 804.14 727.50 800.92 721.71 C 797.65 715.83 795.81 709.21 795.09 704.85 C 794.83 703.21 795.93 701.67 797.57 701.40 Z" fill="#ffffff" fill-rule="nonzero" node-id="60" stroke="none" target-height="52.349976" target-width="229.47101" target-x="758.901" target-y="701.129"></path></svg>